<?xml version="1.0" encoding="UTF-8"?>
<svg id="Layer_1" data-name="Layer 1" xmlns="http://www.w3.org/2000/svg" viewBox="0 0 827.02 51.43">
  <g>
    <path d="M33.28,21.28l-15.51-3.39c-3.29-.71-3.29-1.35-3.29-2.17,0-.94.2-1.04.98-1.04h31.27l-2.68-11.67H13.7C5.93,3,1.29,7.5,1.29,15.04s4.59,12.94,12.28,14.61l15.39,3.33c5.53,1.2,5.96,2.13,5.96,3.32,0,.76-.03.92-.98.92H2.68l-2.68,11.67h35.69c7.77,0,12.41-4.5,12.41-12.04,0-5.63-2.57-12.9-14.82-15.58Z" fill="#f7f6f3"/>
    <polygon points="93.68 20.14 68.7 20.14 68.7 3 55.21 3 55.21 48.9 68.7 48.9 68.7 31.81 93.68 31.81 93.68 48.9 107.17 48.9 107.17 3 93.68 3 93.68 20.14" fill="#f7f6f3"/>
    <path d="M130.16,3l2.92,4.9-24.04,41h14.95l4.6-7.94h24.04l4.6,7.94h14.96L145.26,3h-15.1ZM146.26,29.9h-11.28l5.64-9.74,5.64,9.74Z" fill="#f7f6f3"/>
    <path d="M218.84,3h-44.76v45.9h17.86c25.41,0,38.7-16.3,38.7-32.4,0-9.08-3.86-13.5-11.8-13.5ZM187.56,14.67h28.61c.56,0,.75.07.77.06.06.09.22.48.22,2.01,0,8.24-6.89,20.49-25.88,20.49h-3.71V14.67Z" fill="#f7f6f3"/>
    <path d="M283.72,2.55h-35.38c-7.94,0-11.8,4.42-11.8,13.5,0,18.06,13.51,33.31,29.49,33.31,17.64,0,29.49-17.22,29.49-33.31,0-9.08-3.86-13.5-11.8-13.5ZM282.04,16.29c0,11.43-7.48,21.46-16.01,21.46s-16.01-10.03-16.01-21.46c0-1.57.17-1.94.17-1.98,0,0,.18-.1.81-.1h30.05c.56,0,.76.08.77.06.06.09.22.48.22,2.01Z" fill="#f7f6f3"/>
    <polygon points="354.96 27.74 343.23 3 329.13 3 331.3 7.81 321.73 27.75 310.98 3 296.21 3 317.26 48.9 326.09 48.9 338.37 22.89 350.65 48.9 359.48 48.9 380.53 3 365.76 3 354.96 27.74" fill="#f7f6f3"/>
    <polygon points="428.23 20.63 396.52 20.63 396.52 14.67 430.29 14.67 427.61 3 383.03 3 383.03 48.9 396.52 48.9 396.52 31.93 425.6 31.93 428.23 20.63" fill="#f7f6f3"/>
    <path d="M444.96,3l2.92,4.9-24.04,41h14.96l4.6-7.94h24.04l4.6,7.94h14.96l-26.95-45.9h-15.1ZM461.06,29.9h-11.28l5.64-9.74,5.64,9.74Z" fill="#f7f6f3"/>
    <polygon points="526.62 23.21 499.37 3 488.87 3 488.87 48.9 502.36 48.9 502.36 21.41 526.62 39.37 526.62 48.9 540.1 48.9 540.1 3 526.62 3 526.62 23.21" fill="#f7f6f3"/>
    <path d="M574.95,19.33l2.54,11.3h13.65v6.76c-1.25.18-2.9.29-4.56.29-17.43,0-25.28-12.51-25.28-21.4,0-1.57.17-1.94.18-1.98,0,0,.18-.1.81-.1h41.63l-2.68-11.67h-41.62c-7.94,0-11.8,4.42-11.8,13.5,0,18.99,16.9,33.31,39.31,33.31,6.64,0,14.01-1.2,16.42-2.68l.83-.51v-26.83h-29.43Z" fill="#f7f6f3"/>
  </g>
  <g>
    <polygon points="629.47 43.08 629.47 1.86 622.18 1.86 622.18 49.57 662.11 49.57 663.56 43.08 629.47 43.08" fill="#3a1aff"/>
    <path d="M690.78,1.86l2.24,3.85-25.38,43.86h8.22l5.95-10.3h30.7l5.95,10.3h8.22l-27.61-47.71h-8.28ZM708.84,32.9h-23.36l11.68-20.5,11.68,20.5Z" fill="#3a1aff"/>
    <path d="M767.48,25.55c6.36-2.06,9.98-6.69,9.98-12.89,0-6.97-4.08-10.81-11.48-10.81h-35.21v47.71h36.53c7.19,0,11.48-4.09,11.48-10.94,0-6.5-3.9-10.99-11.3-13.07ZM738.05,22.53v-14.25h26.54c3.86,0,5.58,1.5,5.58,4.85,0,6.46-8.31,9.4-16.03,9.4h-16.09ZM771.49,38.16c0,3.21-1.98,4.98-5.58,4.98h-27.86v-14.25h16.89c6.15,0,16.56,1.95,16.56,9.27Z" fill="#3a1aff"/>
    <path d="M812.86,23.48l-14.14-3.14c-6.85-1.57-8.26-3.91-8.26-6.93,0-3.35,1.99-5.05,5.91-5.05h28.44l-1.45-6.49h-27.79c-7.91,0-12.27,4-12.27,11.28s4.39,11.83,13.03,13.74l14.08,3.15c6.88,1.52,9.44,3.6,9.44,7.67,0,3.62-1.93,5.39-5.91,5.39h-29.64l-1.45,6.49h31.88c8.03,0,12.27-4.06,12.27-11.74s-4.76-12.29-14.16-14.34Z" fill="#3a1aff"/>
  </g>
</svg>